<svg version="1.1" id="Layer_1" xmlns="http://www.w3.org/2000/svg" xmlns:xlink="http://www.w3.org/1999/xlink" x="0px" y="0px"
	 width="100%" viewBox="0 0 1024 1024" enable-background="new 0 0 1024 1024" xml:space="preserve">
<path fill="#000000" opacity="1.000000" stroke="none" 
	d="
M401.444855,653.545166 
	C362.884155,612.230469 319.942596,576.776550 271.766754,547.895020 
	C247.446976,533.315186 229.824387,512.739258 215.342529,488.962311 
	C210.082489,480.326172 205.074646,471.552094 201.231415,462.191040 
	C201.519363,461.760315 201.807327,461.329620 202.095276,460.898895 
	C239.379822,477.293671 276.664368,493.688446 313.948914,510.083191 
	C296.046021,496.012787 276.890808,484.042053 257.912323,471.809357 
	C248.249680,465.581268 238.598938,459.328003 228.793594,453.330048 
	C220.440826,448.220612 215.870239,439.949646 210.923187,432.150055 
	C196.956024,410.129242 186.449188,386.347900 176.538712,362.302155 
	C173.505539,354.942749 170.629639,347.518555 168.256973,339.420563 
	C218.940643,369.302002 269.902557,398.399506 321.815002,425.999451 
	C320.787720,423.029358 318.408691,421.409424 316.152679,419.684753 
	C284.229980,395.280609 250.911560,372.847565 217.421402,350.707062 
	C207.531143,344.168518 200.525711,335.787720 194.865784,325.923340 
	C177.784744,296.153595 165.538834,264.331421 155.401398,231.640945 
	C155.169617,230.893524 155.083160,230.101044 154.955032,229.460159 
	C156.228577,228.341904 157.071915,229.154739 157.855316,229.656128 
	C221.004471,270.073120 285.855927,307.784424 348.248566,349.402649 
	C383.409576,372.856323 413.513336,401.539703 437.833160,436.199615 
	C439.007294,437.872955 439.975189,439.896210 442.345306,440.528076 
	C425.329102,404.261719 400.863495,374.030182 367.290161,349.725189 
	C403.531250,333.750946 440.204498,324.731750 478.171570,321.962738 
	C544.399902,317.132568 629.270508,330.632172 658.256287,350.038635 
	C625.832825,374.248474 600.721741,404.169281 583.422913,441.221863 
	C586.172302,441.033997 586.677429,439.227173 587.505493,438.027435 
	C613.830139,399.886536 647.454224,369.466827 686.072144,344.207458 
	C732.929871,313.558655 780.867798,284.643555 828.379395,255.043457 
	C841.105835,247.114761 853.673767,238.931870 866.349060,230.920395 
	C867.798645,230.004227 869.054871,228.371201 871.856812,229.118103 
	C869.697632,235.952606 867.760559,242.769608 865.399414,249.436432 
	C856.328918,275.047546 846.419678,300.300964 832.929016,323.995239 
	C826.418457,335.430115 818.119019,344.772217 806.839722,352.177948 
	C774.254883,373.572357 742.036194,395.545380 711.039124,419.233368 
	C708.987671,420.801117 706.763428,422.239929 705.995850,425.238281 
	C757.563171,398.170105 807.966370,369.173828 857.396606,338.828552 
	C858.890076,340.559601 858.327454,341.514679 857.971130,342.401978 
	C845.799866,372.707092 833.136536,402.732147 816.556030,431.036621 
	C807.915833,445.786316 795.272644,455.129822 781.224426,463.805511 
	C760.395813,476.668579 740.134399,490.450409 719.648560,503.867096 
	C718.419067,504.672333 717.339905,505.706970 716.190796,506.634888 
	C716.402954,507.088959 716.615112,507.543030 716.827209,507.997101 
	C752.709106,492.302582 788.590942,476.608093 824.277161,460.999146 
	C825.578674,462.282898 825.213318,463.191833 824.741943,464.120148 
	C812.929443,487.383636 799.755798,509.664825 780.815674,528.086792 
	C771.279053,537.362549 760.294006,544.465759 749.111145,551.433289 
	C701.730042,580.954285 659.129822,616.323120 621.505676,657.514099 
	C582.599609,700.108459 550.376831,747.282898 526.630981,800.029907 
	C524.671448,804.382751 522.936829,808.836914 520.342407,813.049744 
	C522.127808,779.336121 529.028259,746.650146 539.919006,714.781067 
	C550.930176,682.559204 566.373779,652.597168 586.545166,625.116516 
	C606.684082,597.680298 630.694641,574.098877 659.458191,553.101013 
	C647.615906,550.896057 637.059937,553.224426 626.669739,551.606873 
	C627.091919,548.855042 629.265442,548.722046 630.703186,547.879578 
	C639.215149,542.891479 647.521423,537.623291 654.023804,530.052307 
	C663.164917,519.408936 667.572388,506.677124 668.512939,492.981171 
	C669.689087,475.855286 669.283691,458.689789 666.733154,441.642303 
	C665.875854,435.912537 664.223877,434.919464 659.188904,437.738647 
	C628.834656,454.734528 600.666321,474.809357 574.794678,498.072449 
	C568.104797,504.087738 561.523804,510.234253 555.109314,516.540649 
	C552.536926,519.069641 550.348389,519.310791 547.183716,517.688110 
	C533.459534,510.651154 523.737549,499.811096 516.598572,486.379761 
	C515.767395,484.815979 515.429016,482.848114 513.345154,481.876587 
	C510.448608,483.053467 509.946960,486.124329 508.615448,488.469116 
	C501.633331,500.764984 492.393951,510.709381 479.812195,517.501831 
	C476.222168,519.440002 473.981781,518.935425 471.118042,516.175476 
	C440.160553,486.340118 406.637115,459.863159 368.991180,438.847107 
	C368.118286,438.359833 367.273560,437.817444 366.379608,437.373505 
	C362.138031,435.267273 360.247162,436.130280 359.482391,440.900024 
	C358.719391,445.658600 358.078125,450.460266 357.791931,455.267365 
	C356.831360,471.401672 356.148041,487.548187 359.488464,503.532867 
	C363.686829,523.623230 376.252350,537.091492 393.709198,546.700317 
	C395.827637,547.866455 398.407471,548.441223 400.434937,551.847900 
	C389.025574,551.847900 378.291962,551.847900 367.558350,551.847900 
	C367.434326,552.258362 367.310333,552.668823 367.186340,553.079285 
	C455.628174,617.224365 496.881714,706.582214 506.473785,812.906189 
	C480.583740,753.883667 445.635986,700.877441 401.444855,653.545166 
z"/>
<path fill="#000000" opacity="1.000000" stroke="none" 
	d="
M550.093750,569.184387 
	C550.175903,572.347839 549.988159,575.330261 546.920471,576.191772 
	C544.234497,576.946106 542.950623,574.242432 541.515808,572.506958 
	C539.629700,570.225647 537.930420,567.789856 535.620605,565.652588 
	C536.900696,569.555481 537.754700,573.669983 539.562134,577.311096 
	C542.188843,582.602966 542.128967,587.478760 540.262695,593.057495 
	C531.062317,620.560669 526.582825,649.260010 519.322205,677.260376 
	C517.791382,683.163879 516.544250,689.203918 513.583923,694.975281 
	C510.774475,692.922424 510.687744,689.906860 509.938812,687.344543 
	C503.773529,666.251282 500.063019,644.569153 494.689240,623.287048 
	C492.003326,612.649841 488.988190,602.082764 485.695709,591.618042 
	C484.322510,587.253662 483.991852,583.423645 486.057617,579.199646 
	C487.377167,576.501526 488.750122,573.582703 488.627411,570.411377 
	C488.204224,570.060486 487.781036,569.709534 487.357849,569.358643 
	C485.814270,571.243774 484.462799,573.339478 482.682007,574.964661 
	C480.028442,577.386353 477.813049,576.634033 476.894287,573.138550 
	C476.201935,570.504395 476.420868,567.826477 477.446777,565.287476 
	C482.725952,552.222046 489.437531,539.986694 499.359497,529.841309 
	C509.107849,519.873413 517.277161,519.526855 526.791687,529.606567 
	C537.384949,540.829102 545.322815,553.920044 550.093750,569.184387 
z"/>
<path fill="#000000" opacity="1.000000" stroke="none" 
	d="
M389.990173,477.406128 
	C389.793854,471.388550 385.053345,468.520569 382.441833,464.387604 
	C381.086761,462.243103 378.846161,460.650543 377.950378,457.215393 
	C384.603027,459.512177 389.928619,462.864075 395.219879,466.092407 
	C422.845795,482.947662 447.168060,503.874756 469.633209,527.055542 
	C471.435669,528.915405 472.362640,530.556702 469.517212,532.177063 
	C456.575104,539.547302 442.949738,542.659058 428.227081,538.674316 
	C427.350952,538.437134 426.171936,538.406860 425.828400,536.653320 
	C430.343353,534.976318 435.783905,535.441284 439.789246,532.026550 
	C438.870483,530.315735 437.427551,530.452637 436.172791,530.378845 
	C407.271912,528.679138 388.324219,506.883423 389.990173,477.406128 
M432.081818,519.557373 
	C437.446777,520.016296 442.614807,519.732483 446.960693,515.901672 
	C442.895203,510.526276 442.895203,510.526276 437.098572,512.287964 
	C424.771393,516.034363 413.938477,507.131958 415.560455,494.307281 
	C416.233765,488.983490 413.238495,487.393341 409.215271,486.055725 
	C404.340546,499.900848 414.516022,515.087830 432.081818,519.557373 
z"/>
<path fill="#000000" opacity="1.000000" stroke="none" 
	d="
M588.787842,533.495178 
	C592.779724,534.568237 596.429688,535.532654 600.136902,536.512207 
	C599.958679,539.015747 597.795105,538.792358 596.445923,539.106445 
	C582.586121,542.332825 569.726257,539.375977 557.531433,532.543457 
	C554.032532,530.583069 555.548828,528.820496 557.504395,526.756348 
	C574.847839,508.450012 593.693604,491.881683 614.263489,477.273926 
	C624.839050,469.763702 635.761047,462.858124 647.277710,457.097626 
	C648.803833,458.606842 647.756714,459.522675 647.101685,460.381226 
	C645.487122,462.497803 643.894714,464.647858 642.099304,466.606628 
	C637.885864,471.203613 635.971924,476.192993 636.038574,482.771210 
	C636.308594,509.428497 617.097351,529.148987 590.414917,530.440125 
	C588.661194,530.524902 586.917175,530.811340 585.027466,531.019592 
	C585.826660,532.755737 587.345276,532.740967 588.787842,533.495178 
M611.187317,495.440033 
	C610.306091,508.662262 600.083801,516.626404 589.033569,512.077820 
	C583.746948,509.901733 581.977295,512.644714 579.666809,515.975220 
	C588.323792,522.635132 601.268921,519.247314 608.364807,513.024963 
	C616.813782,505.616333 620.630432,493.911957 616.747620,486.107361 
	C612.516907,487.377228 610.309937,489.950592 611.187317,495.440033 
z"/>
<path fill="#000000" opacity="1.000000" stroke="none" 
	d="
M551.265137,585.344849 
	C566.998596,570.540161 585.555481,562.509338 606.682678,559.458252 
	C590.382690,571.064453 574.842651,583.377380 562.106934,598.880554 
	C549.377808,614.375671 539.447937,631.574890 531.068481,649.594849 
	C529.043091,649.059998 529.474121,647.921448 529.688416,647.037964 
	C534.396912,627.627563 539.727783,608.417114 548.109436,590.195312 
	C548.876221,588.528198 549.563171,586.828552 551.265137,585.344849 
z"/>
<path fill="#000000" opacity="1.000000" stroke="none" 
	d="
M483.745483,603.409058 
	C489.202087,618.536804 493.680115,633.531982 496.243744,649.293945 
	C478.914307,612.431641 455.286041,581.111633 419.805023,559.639771 
	C433.710846,561.375671 446.549011,565.366394 458.519897,572.338074 
	C470.797028,579.488037 480.091217,588.844421 483.745483,603.409058 
z"/>
</svg>